<?xml version="1.0" encoding="UTF-8" standalone="no"?>
<svg xmlns:sketch="http://www.bohemiancoding.com/sketch/ns"
   xmlns:dc="http://purl.org/dc/elements/1.1/"
   xmlns:cc="http://creativecommons.org/ns#"
   xmlns:rdf="http://www.w3.org/1999/02/22-rdf-syntax-ns#"
   xmlns:svg="http://www.w3.org/2000/svg"
   xmlns="http://www.w3.org/2000/svg"
   xmlns:sodipodi="http://sodipodi.sourceforge.net/DTD/sodipodi-0.dtd"
   xmlns:inkscape="http://www.inkscape.org/namespaces/inkscape" width="210" height="82.028519" viewBox="0 0 210 82.028519" version="1.1" id="svg21" sodipodi:docname="logo.svg" inkscape:version="0.92.5 (2060ec1f9f, 2020-04-08)">
   <metadata id="metadata25">
      <rdf:RDF>
         <cc:Work rdf:about="">
            <dc:format>image/svg+xml</dc:format>
            <dc:type rdf:resource="http://purl.org/dc/dcmitype/StillImage" />
            <dc:title>Logo White Copy</dc:title>
         </cc:Work>
      </rdf:RDF>
   </metadata>
   <sodipodi:namedview pagecolor="#ffffff" bordercolor="#666666" borderopacity="1" objecttolerance="10" gridtolerance="10" guidetolerance="10" inkscape:pageopacity="0" inkscape:pageshadow="2" inkscape:window-width="1920" inkscape:window-height="995" id="namedview23" showgrid="false" inkscape:pagecheckerboard="true" inkscape:zoom="1.652381" inkscape:cx="187.57533" inkscape:cy="-12.916678" inkscape:window-x="0" inkscape:window-y="0" inkscape:window-maximized="1" inkscape:current-layer="Imported-Layers" fit-margin-top="0" fit-margin-left="0" fit-margin-right="0" fit-margin-bottom="0" />
   <!-- Generator: Sketch 3.3.2 (12043) - http://www.bohemiancoding.com/sketch -->
   <title id="title2">Logo White Copy</title>
   <desc id="desc4">Created with Sketch.</desc>
   <defs id="defs6" />
   <g id="Final" sketch:type="MSPage" style="fill:none;fill-rule:evenodd;stroke:none;stroke-width:1" transform="translate(-0.30249548,41.398516)">
      <g id="Contentpage" sketch:type="MSArtboardGroup" transform="translate(-30,-20)" style="fill:#ffffff">
         <g id="header-nav-copy" sketch:type="MSLayerGroup" transform="translate(29,19)">
            <g id="Logo-White-Copy" sketch:type="MSShapeGroup">
               <g id="Imported-Layers" transform="translate(0.714626,0.315)">
                  <path d="m 61.584548,33.438186 c 5.277415,0 8.139879,-3.510232 8.139879,-8.43425 V -0.10694423 H 80.946493 V 25.565411 c -0.112886,11.300199 -9.147788,15.74151 -19.361945,15.74151 -10.214157,0 -19.245028,-4.441311 -19.357914,-15.74151 V -0.10694423 H 53.446685 V 25.003936 c 0,4.924018 2.862464,8.43425 8.137863,8.43425" id="Fill-1" style="fill:#00adef;fill-opacity:1;stroke-width:2.019696" inkscape:connector-curvature="0" />
                  <path d="m 155.84829,27.373039 v -2.643782 c 0,-7.812184 -4.41666,-13.323934 -12.40736,-13.323934 -8.91799,0 -13.07259,6.915439 -13.07259,15.180034 0,8.321148 3.59622,14.729643 12.62709,14.729643 6.73687,0 11.67159,-3.203238 12.51421,-9.611733 h -5.60801 c -0.62088,4.099983 -2.69314,5.731897 -6.84573,5.731897 -5.44876,0 -7.25493,-4.853329 -7.25493,-10.062125 z m -19.92637,-3.710182 c 0.0403,-4.402937 2.69717,-8.375679 7.13398,-8.375679 5.15647,0 7.1743,3.540527 7.1743,8.375679 z" id="Fill-2" style="fill:#000000;fill-opacity:1;stroke-width:2.019696" inkscape:connector-curvature="0" />
                  <path d="m 162.30698,-0.10694423 h 5.33587 V 40.470767 h -5.33587 z" id="Fill-3" style="fill:#000000;fill-opacity:1;stroke-width:2.019696" inkscape:connector-curvature="0" />
                  <path d="M 13.158519,40.470767 H 24.376554 V 7.7678503 H 36.947203 V -0.10290484 H 0.58786948 V 7.7678503 H 13.158519 V 40.470767" id="Fill-4" style="fill:#000000;fill-opacity:1;stroke-width:2.019696" inkscape:connector-curvature="0" />
                  <path d="m 40.110024,-19.86563 c -2.737483,0.860391 -5.561646,0.171674 -5.553582,-3.494074 0.006,-5.588498 13.104842,-10.276213 14.925126,-15.159837 0.451544,-1.221917 0.475734,-2.221666 -0.102806,-2.19339 -0.419291,0.02828 -0.09071,0.634184 -1.011942,1.557185 -5.42457,5.439041 -14.519947,5.428943 -21.498713,8.561491 -4.57591,2.06009 -17.9871566,8.381739 -14.896906,22.4832557 0.143124,0.6705391 0.544272,2.9124016 0.951467,2.9124016 0.477749,0 0.473718,-1.3329993 0.459607,-2.9487561 -0.102807,-8.3978962 9.825104,-10.7427632 13.05243,-16.2302762 0.387038,-0.652362 1.054274,-1.573344 1.211508,-1.147188 0.0766,0.210049 0.02822,0.513003 -0.102807,1.096695 -1.009925,4.507962 -5.718879,7.402186 -4.384407,10.625621 1.729573,4.1807702 6.718726,1.064379 8.250749,-1.625856 0.411227,-0.739208 0.639014,-1.211817 0.913166,-1.116892 0.209645,0.07069 0.201582,0.918962 0.07055,1.686447 -0.816407,4.851309 -1.933171,7.5758791 -5.474966,10.3368034 -1.134906,0.8846269 -2.916891,1.0684192 -2.683055,1.747037 0.05846,0.1777333 0.828501,0.159556 1.44131,0.096945 9.436051,-0.6059088 17.332015,-11.7566494 19.420404,-19.0416934 0.22174,-0.508963 0.286247,-0.99167 0.05644,-1.171423 -0.286246,-0.220147 -0.699489,0.284777 -1.122811,0.66044 -1.076448,0.947238 -2.556059,1.938908 -3.920769,2.365064" id="Fill-5" style="fill:#000000;fill-opacity:1;stroke-width:2.019696" inkscape:connector-curvature="0" />
                  <path d="M 184.354,40.470767 V 15.975895 h 6.50504 V 12.259654 H 184.354 V 7.7012003 c 0,-3.2618089 1.5683,-3.8172253 4.60211,-3.8172253 0.89502,0 1.7961,0.1131029 2.69112,0.165615 v -4.43525227 c -1.24578,-0.28275743 -2.52179,-0.56551487 -3.81595,-0.56551487 -5.04761,0 -8.80913,2.53673814 -8.80913,7.93740504 v 5.2734261 h -5.4931 v 3.716241 h 5.4931 v 24.494872 h 5.33185" id="Fill-6" style="fill:#000000;fill-opacity:1;stroke-width:2.019696" inkscape:connector-curvature="0" />
                  <path d="m 193.92107,12.259654 v 3.716241 h 4.82386 v 17.975294 c 0,3.754614 0.0544,7.361791 7.97257,7.361791 1.23166,0 2.38874,-0.117142 3.64661,-0.335269 v -4.104022 c -0.8668,0.210048 -1.96341,0.337289 -2.81005,0.337289 -1.90495,0 -3.47326,-0.961375 -3.47326,-2.977032 V 15.975895 h 6.50707 V 12.259654 H 204.0808 V 4.5605731 l -5.33587,1.6844264 v 6.0186935 l -4.82386,-0.004" id="Fill-7" style="fill:#000000;fill-opacity:1;stroke-width:2.019696" inkscape:connector-curvature="0" />
                  <path d="m 97.784632,4.7261882 h 8.295098 c 9.36146,0 13.24595,7.0749948 13.24595,15.4587528 0,8.383758 -3.88449,15.456733 -13.24595,15.456733 H 97.784632 Z M 92.164528,40.470767 h 13.915202 c 17.31992,0 19.13617,-14.689249 19.13617,-20.285826 0,-5.598597 -1.81625,-20.29188523 -19.13617,-20.29188523 H 92.164528 Z" id="Fill-8" style="fill:#000000;fill-opacity:1;stroke-width:2.019696" inkscape:connector-curvature="0" />
               </g>
            </g>
         </g>
      </g>
   </g>
</svg>
